<?xml version="1.0" encoding="utf-8"?>
<!-- Generator: Adobe Illustrator 25.1.0, SVG Export Plug-In . SVG Version: 6.00 Build 0)  -->
<svg version="1.1" id="圖層_1" xmlns="http://www.w3.org/2000/svg" xmlns:xlink="http://www.w3.org/1999/xlink" x="0px" y="0px"
	 viewBox="0 0 144.62 138.02" style="enable-background:new 0 0 144.62 138.02;" xml:space="preserve">
<path d="M72.53,2.77c-36.54,0-66.17,29.27-66.17,65.38c0,36.11,29.62,65.38,66.17,65.38c36.54,0,66.17-29.27,66.17-65.38
	C138.7,32.04,109.08,2.77,72.53,2.77z M74.53,126.35c-33.59,0-60.82-26.9-60.82-60.09c0-33.19,27.23-60.09,60.82-60.09
	c33.59,0,60.82,26.9,60.82,60.09C135.35,99.45,108.12,126.35,74.53,126.35z"/>
<ellipse cx="83.24" cy="56.71" rx="25.81" ry="25.5"/>
<path d="M128.96,48.39c-1.51,1.97-3.21,3.75-5.04,5.35c0.19-9.34-2.83-18.79-9.26-26.6C101.8,11.5,79.68,7.71,62.46,17.18
	c0.29-1.18,0.64-2.35,1.06-3.51c-11.75,4.48-21.75,13.41-27.21,25.71c-10.85,24.47,0.43,53,25.2,63.73
	c24.77,10.72,53.64-0.43,64.49-24.9C130.33,68.45,131.13,58.05,128.96,48.39z M65.03,86.16c-16.92-7.32-24.63-26.81-17.21-43.53
	c0.36-0.82,0.76-1.61,1.18-2.39c3.82-0.89,7.75-1.06,11.6-0.55c1.41-1.9,3.08-3.66,5.01-5.22c12.12-9.73,29.92-7.92,39.78,4.05
	c9.85,11.97,8.01,29.57-4.1,39.3c-4.78,3.84-10.45,5.88-16.16,6.21c-0.76,1.62-1.67,3.18-2.72,4.66
	C76.67,89.38,70.7,88.61,65.03,86.16z"/>
</svg>
